# xmcd
#
# Track frame offsets: 
#        150
#        18101
#        35809
#        56623
#        78669
#        95090
#
# Disc length: 1498 seconds
#
# Revision: 0
# Processed by: cddbd v1.5.2PL0 Copyright (c) Steve Scherf et al.
# Submitted via: ExactAudioCopyFreeDBPlugin 1.0
#
DISCID=4805d806
DTITLE=Taylor Swift - Speak Now [Deluxe Edition Disc 2]
DYEAR=2010
DGENRE=Country
TTITLE0=Ours  
TTITLE1=If This Was a Movie 
TTITLE2=Superman  
TTITLE3=Back to December [Acoustic Version]
TTITLE4=Haunted [Acoustic Version]
TTITLE5=Mine [US Version]
EXTD=
EXTT0=
EXTT1=
EXTT2=
EXTT3=
EXTT4=
EXTT5=
PLAYORDER=
